<svg width="8" height="11" viewBox="0 0 8 11" fill="none" xmlns="http://www.w3.org/2000/svg">
<path fill-rule="evenodd" clip-rule="evenodd" d="M6.50008 0.500015L4.00008 3.00001L1.50008 0.500015C1.22393 0.223872 0.776218 0.223872 0.500076 0.500014C0.223933 0.776157 0.223933 1.22387 0.500075 1.50001L3.29297 4.29291C3.68349 4.68343 4.31666 4.68343 4.70718 4.29291L7.50008 1.50001C7.77622 1.22387 7.77622 0.776157 7.50008 0.500014C7.22393 0.223872 6.77622 0.223872 6.50008 0.500015ZM6.50008 6.50001L4.00008 9.00001L1.50008 6.50001C1.22393 6.22387 0.776218 6.22387 0.500076 6.50001C0.223933 6.77616 0.223933 7.22387 0.500075 7.50001L3.29297 10.2929C3.68349 10.6834 4.31666 10.6834 4.70718 10.2929L7.50008 7.50001C7.77622 7.22387 7.77622 6.77616 7.50008 6.50001C7.22393 6.22387 6.77622 6.22387 6.50008 6.50001Z" fill="#41F6D7"/>
</svg>
