<svg width="98" height="53" viewBox="0 0 98 53" fill="none" xmlns="http://www.w3.org/2000/svg">
<path fill-rule="evenodd" clip-rule="evenodd" d="M36.8445 1C36.2922 1 35.8445 1.44772 35.8445 2V6.27495C35.8445 6.82724 36.2922 7.27495 36.8445 7.27495H73.1714C83.2984 7.27495 91.2519 15.0716 91.2519 25.1644C91.2519 25.45 91.4834 25.6815 91.7689 25.6815H97.0311C97.3167 25.6815 97.5482 25.45 97.5482 25.1644C97.5482 11.6752 86.7062 1 73.1714 1H36.8445Z" fill="#6B7B84" stroke="#80949F" stroke-width="0.5"/>
<path fill-rule="evenodd" clip-rule="evenodd" d="M7.38075 26.1198C7.38075 25.8777 7.18452 25.6815 6.94246 25.6815H1.43829C1.19623 25.6815 1 25.8777 1 26.1198C1 39.7692 11.2232 51.0386 24.4427 51.7761L66.7843 51.8139C67.3369 51.8144 67.7852 51.3666 67.7852 50.8139V46.2343C67.7852 45.682 67.3375 45.2343 66.7852 45.2343H25.9005C15.6642 45.206 7.38075 36.6906 7.38075 26.1198Z" fill="#6B7B84" stroke="#80949F" stroke-width="0.5"/>
<path fill-rule="evenodd" clip-rule="evenodd" d="M28.4154 40.2C31.1543 40.2 33.4356 39.6679 35.6888 38.5731L35.8444 38.4275V30.5931L35.0012 31.6725C33.3788 33.4454 31.1999 34.4213 28.7347 34.4213C24.1431 34.4213 19.5315 31.4534 19.5315 25.7814C19.5315 21.495 22.712 16.9396 28.5733 16.9396C29.7428 16.9396 32.5869 17.2161 34.9971 19.7756L35.8444 20.8193V13.0203L35.6957 12.8729C33.3998 11.7223 31.0582 11.163 28.3876 11.163C23.8206 11.163 20.256 12.3653 17.4178 14.8365C15.6174 16.3853 12.6147 19.8561 12.6147 25.6999C12.6147 30.0206 14.1533 33.3951 17.4408 36.322C20.4991 39.0038 23.8902 40.2 28.4154 40.2Z" fill="#6B7B84"/>
<path d="M28.4154 40.2C31.1543 40.2 33.4356 39.6679 35.6888 38.5731L35.8444 38.4275V30.5931L35.0012 31.6725C33.3788 33.4454 31.1999 34.4213 28.7347 34.4213C24.1431 34.4213 19.5315 31.4534 19.5315 25.7814C19.5315 21.495 22.712 16.9396 28.5733 16.9396C29.7428 16.9396 32.5869 17.2161 34.9971 19.7756L35.8444 20.8193V13.0203L35.6957 12.8729C33.3998 11.7223 31.0582 11.163 28.3876 11.163C23.8206 11.163 20.256 12.3653 17.4178 14.8365C15.6174 16.3853 12.6147 19.8561 12.6147 25.6999C12.6147 30.0206 14.1533 33.3951 17.4408 36.322C20.4991 39.0038 23.8902 40.2 28.4154 40.2" stroke="#80949F" stroke-width="0.5"/>
<path fill-rule="evenodd" clip-rule="evenodd" d="M48.1852 17.6963H49.5495C50.801 17.6963 52.2273 17.7646 53.3069 18.5004C53.834 18.877 54.7185 19.7487 54.7185 21.332C54.7185 22.5021 54.2015 23.5512 53.3474 24.2058C52.2524 25.0007 50.9508 24.9551 49.905 24.9551H48.1852V17.6963ZM51.2509 30.2254C54.4823 30.2254 57.0117 29.2934 58.7682 27.5374C60.9289 25.3811 61.2519 22.4149 61.2519 20.8511C61.2519 19.1779 60.8552 15.9142 58.1951 13.5511C56.0147 11.6404 53.6881 11.163 50.4063 11.163H41.6519V40.2H48.3104V30.2254H51.2509Z" fill="#6B7B84"/>
<path d="M48.1852 17.6963V17.4463H47.9352V17.6963H48.1852ZM53.3069 18.5004L53.4522 18.297L53.4477 18.2939L53.3069 18.5004ZM53.3474 24.2058L53.4943 24.4082L53.4995 24.4042L53.3474 24.2058ZM48.1852 24.9551H47.9352V25.2051H48.1852V24.9551ZM58.7682 27.5374L58.5916 27.3605L58.5915 27.3606L58.7682 27.5374ZM58.1951 13.5511L58.3612 13.3642L58.3599 13.3631L58.1951 13.5511ZM41.6519 11.163V10.913H41.4019V11.163H41.6519ZM41.6519 40.2H41.4019V40.45H41.6519V40.2ZM48.3104 40.2V40.45H48.5604V40.2H48.3104ZM48.3104 30.2254V29.9754H48.0604V30.2254H48.3104ZM48.1852 17.9463H49.5495V17.4463H48.1852V17.9463ZM49.5495 17.9463C50.8067 17.9463 52.1579 18.0198 53.1661 18.707L53.4477 18.2939C52.2968 17.5093 50.7952 17.4463 49.5495 17.4463V17.9463ZM53.1616 18.7039C53.6492 19.0522 54.4685 19.857 54.4685 21.332H54.9685C54.9685 19.6404 54.0189 18.7018 53.4522 18.297L53.1616 18.7039ZM54.4685 21.332C54.4685 22.428 53.9848 23.4023 53.1953 24.0074L53.4995 24.4042C54.4181 23.7001 54.9685 22.5761 54.9685 21.332H54.4685ZM53.2006 24.0035C52.1832 24.742 50.9712 24.7051 49.905 24.7051V25.2051C50.9305 25.2051 52.3216 25.2593 53.4943 24.4082L53.2006 24.0035ZM49.905 24.7051H48.1852V25.2051H49.905V24.7051ZM48.4352 24.9551V17.6963H47.9352V24.9551H48.4352ZM51.2509 30.4754C54.5308 30.4754 57.1303 29.5283 58.945 27.7142L58.5915 27.3606C56.8931 29.0585 54.4338 29.9754 51.2509 29.9754V30.4754ZM58.9448 27.7144C61.1769 25.4869 61.5019 22.4363 61.5019 20.8511H61.0019C61.0019 22.3935 60.681 25.2754 58.5916 27.3605L58.9448 27.7144ZM61.5019 20.8511C61.5019 19.1498 61.1002 15.7974 58.3612 13.3642L58.0291 13.738C60.6102 16.0309 61.0019 19.2059 61.0019 20.8511H61.5019ZM58.3599 13.3631C56.1139 11.395 53.7157 10.913 50.4063 10.913V11.413C53.6606 11.413 55.9154 11.8858 58.0304 13.7391L58.3599 13.3631ZM50.4063 10.913H41.6519V11.413H50.4063V10.913ZM41.4019 11.163V40.2H41.9019V11.163H41.4019ZM41.6519 40.45H48.3104V39.95H41.6519V40.45ZM48.5604 40.2V30.2254H48.0604V40.2H48.5604ZM48.3104 30.4754H51.2509V29.9754H48.3104V30.4754Z" fill="#80949F"/>
<path fill-rule="evenodd" clip-rule="evenodd" d="M81.2269 24.8763C79.7793 23.5936 77.7585 22.8501 75.465 22.0789C73.8308 21.5102 72.9304 21.197 72.3302 20.6497C71.8564 20.2475 71.6451 19.8109 71.6451 19.2338C71.6451 17.9698 72.504 16.6189 74.9153 16.6189C76.554 16.6189 77.9261 17.3196 78.9936 18.7006L79.4174 19.249L82.9337 14.7732L82.6131 14.4521C80.4626 12.3 77.6288 11.163 74.4179 11.163C67.9396 11.163 65.0397 15.3775 65.0397 19.5544C65.0397 21.7958 65.839 23.6036 67.4106 24.9251C68.8176 26.131 70.5335 26.8067 72.1793 27.3583L72.3654 27.4199C73.8269 27.903 75.3385 28.403 76.2413 29.211C76.8694 29.7881 77.1493 30.4152 77.1493 31.2443C77.1493 33.1444 75.653 34.4213 73.426 34.4213C71.6656 34.4213 69.3475 33.5584 68.1211 31.1372L67.8003 30.5029L63.4297 34.5487L63.6874 34.9132C65.0819 36.8876 68.2284 40.2 73.6333 40.2C79.593 40.2 83.7556 36.3684 83.7556 30.8827C83.7556 27.745 82.379 25.8828 81.2269 24.8763Z" fill="#6B7B84"/>
<path d="M81.2269 24.8763C79.7793 23.5936 77.7585 22.8501 75.465 22.0789C73.8308 21.5102 72.9304 21.197 72.3302 20.6497C71.8564 20.2475 71.6451 19.8109 71.6451 19.2338C71.6451 17.9698 72.504 16.6189 74.9153 16.6189C76.554 16.6189 77.9261 17.3196 78.9936 18.7006L79.4174 19.249L82.9337 14.7732L82.6131 14.4521C80.4626 12.3 77.6288 11.163 74.4179 11.163C67.9396 11.163 65.0397 15.3775 65.0397 19.5544C65.0397 21.7958 65.839 23.6036 67.4106 24.9251C68.8176 26.131 70.5335 26.8067 72.1793 27.3583L72.3654 27.4199C73.8269 27.903 75.3385 28.403 76.2413 29.211C76.8694 29.7881 77.1493 30.4152 77.1493 31.2443C77.1493 33.1444 75.653 34.4213 73.426 34.4213C71.6656 34.4213 69.3475 33.5584 68.1211 31.1372L67.8003 30.5029L63.4297 34.5487L63.6874 34.9132C65.0819 36.8876 68.2284 40.2 73.6333 40.2C79.593 40.2 83.7556 36.3684 83.7556 30.8827C83.7556 27.745 82.379 25.8828 81.2269 24.8763" stroke="#80949F" stroke-width="0.5"/>
</svg>
